<?xml version="1.0" encoding="utf-8"?>
<svg xmlns="http://www.w3.org/2000/svg" xmlns:xlink="http://www.w3.org/1999/xlink" version="1.1" id="Layer_1" x="0px" y="0px" viewBox="0 0 757 163.631" enable-background="new 0 0 757 163.631" xml:space="preserve">
<g>
	<path fill="#86C443" d="M675.182,58.479 623.096,6.392 629.488,0 675.182,45.694 720.878,0 727.271,6.392  z"/>
	<path fill="#20A397" d="M720.878,163.631 675.182,117.937 629.488,163.631 623.096,157.239 675.182,105.152    727.271,157.239  z"/>
	<g>
		<path fill="#F3BF2E" d="M750.608,133.902 698.519,81.816 750.608,29.727 757,36.12 711.304,81.816 757,127.51   z"/>
		<path fill="#F15F3E" d="M599.759,133.902 593.367,127.51 639.063,81.816 593.367,36.12 599.759,29.727 651.848,81.816       z"/>
	</g>
	<path fill="#FFFFFF" d="M9.276,97.502c0,4.6,0.37,8.559,1.112,11.872c0.742,3.315,2.3,6.036,4.676,8.164s5.802,3.698,10.277,4.712   c4.479,1.014,10.425,1.521,17.847,1.521h46.084v8.979H41.332c-8.164,0-14.904-0.654-20.222-1.967   c-5.318-1.311-9.548-3.339-12.687-6.085c-3.142-2.745-5.332-6.221-6.568-10.425S0,105.07,0,99.282V30.79h9.276V97.502z"/>
	<path fill="#FFFFFF" d="M200.211,132.75v-11.28c-3.564,1.93-7.608,3.711-12.135,5.344c-4.524,1.632-9.3,3.042-14.321,4.23   c-5.021,1.186-10.18,2.101-15.471,2.745c-5.294,0.642-10.491,0.963-15.585,0.963c-6.63,0-12.577-0.592-17.847-1.78   s-9.735-2.956-13.395-5.306c-3.66-2.348-6.482-5.268-8.457-8.756c-1.982-3.488-2.97-7.533-2.97-12.133   c0-4.551,1.15-8.571,3.45-12.059c2.3-3.488,5.577-6.53,9.835-9.127c4.251-2.597,9.386-4.798,15.395-6.604   c6.012-1.806,12.729-3.339,20.15-4.601c7.421-1.26,15.447-2.3,24.08-3.117c8.63-0.817,17.722-1.495,27.271-2.041v-7.791   c0-3.167-0.594-5.962-1.782-8.386c-1.188-2.422-2.846-4.538-4.973-6.344c-2.127-1.806-4.624-3.315-7.494-4.527   c-2.87-1.212-5.974-2.189-9.313-2.932c-3.339-0.741-6.851-1.273-10.536-1.595c-3.688-0.321-7.383-0.482-11.095-0.482   c-4.997,0-9.548,0.249-13.654,0.742c-4.106,0.496-7.939,1.176-11.499,2.041c-3.564,0.865-6.976,1.868-10.242,3.004   c-3.263,1.14-6.554,2.35-9.869,3.636V35.761c6.875-1.829,14.21-3.424,22.004-4.786c7.791-1.359,16.065-2.039,24.819-2.039   c7.421,0,14.348,0.63,20.778,1.891c6.43,1.262,12.024,3.279,16.773,6.048c4.748,2.771,8.485,6.345,11.206,10.722   c2.718,4.379,4.078,9.711,4.078,15.992v69.161H200.211z M200.211,77.466c-16.192,0.891-30.016,2.151-41.477,3.785   c-11.465,1.632-20.834,3.636-28.113,6.01c-7.276,2.374-12.611,5.145-16.002,8.31c-3.391,3.167-5.087,6.753-5.087,10.76   c0,3.265,0.829,6.159,2.486,8.682c1.658,2.524,4.047,4.638,7.169,6.345c3.118,1.706,6.903,2.994,11.361,3.859   c4.455,0.865,9.455,1.298,15.001,1.298c3.267,0,6.648-0.186,10.139-0.556c3.488-0.371,6.969-0.891,10.432-1.559   c3.467-0.668,6.882-1.459,10.249-2.374c3.367-0.915,6.537-1.917,9.507-3.006c2.97-1.088,5.681-2.25,8.132-3.488   c2.452-1.236,4.517-2.497,6.202-3.785V77.466z"/>
	<path fill="#FFFFFF" d="M252.155,30.79v15.657c2.176-1.879,4.6-3.883,7.273-6.01c2.669-2.127,5.615-4.082,8.83-5.862   c3.215-1.782,6.703-3.265,10.463-4.453c3.757-1.186,7.791-1.78,12.097-1.78c6.875,0,12.96,1.547,18.254,4.638   c5.294,3.092,9.573,7.879,12.836,14.359c3.167-2.918,6.433-5.553,9.797-7.903c3.363-2.35,6.813-4.341,10.353-5.974   c3.536-1.632,7.183-2.894,10.943-3.785c3.761-0.889,7.642-1.335,11.651-1.335c5.094,0,9.731,0.865,13.913,2.597   c4.178,1.732,7.728,4.106,10.65,7.124c2.918,3.018,5.18,6.566,6.789,10.648c1.606,4.082,2.41,8.448,2.41,13.098v70.941h-9.275   V64.183c0-4.254-0.508-8.051-1.519-11.391c-1.015-3.339-2.597-6.171-4.752-8.497c-2.151-2.326-4.897-4.094-8.236-5.306   c-3.339-1.212-7.335-1.818-11.983-1.818c-3.712,0-7.383,0.532-11.019,1.595c-3.636,1.065-7.114,2.474-10.429,4.23   c-3.312,1.756-6.406,3.747-9.276,5.972c-2.87,2.227-5.391,4.527-7.566,6.901c0.245,1.386,0.38,2.573,0.407,3.562   c0.024,0.991,0.035,2.177,0.035,3.562v69.755h-9.276V64.183c0-5.047-0.667-9.288-2.003-12.727   c-1.336-3.438-3.191-6.221-5.563-8.348c-2.376-2.125-5.183-3.647-8.423-4.564c-3.243-0.915-6.768-1.373-10.577-1.373   c-3.612,0-7.186,0.62-10.722,1.854c-3.536,1.238-6.913,2.846-10.128,4.824c-3.215,1.979-6.185,4.192-8.906,6.642   c-2.721,2.448-5.069,4.885-7.048,7.309v74.948h-9.276V30.79H252.155z"/>
	<path fill="#FFFFFF" d="M556.696,132.75V30.79h9.276v101.96H556.696z"/>
	<path fill="#FFFFFF" d="M529.205,48.6c-1.657-3.907-4.268-7.172-7.828-9.795c-3.564-2.623-8.153-4.613-13.765-5.974   c-5.615-1.361-12.384-2.041-20.295-2.041h-55.062v101.96h9.276V93.569h0.039v-8.682h-0.039V39.471h39.885   c7.031,0,13.109,0.273,18.233,0.817c5.125,0.545,9.358,1.621,12.701,3.229c3.343,1.607,5.819,3.895,7.428,6.863   c1.609,2.968,2.414,6.877,2.414,11.724c0,4.156-0.632,7.595-1.892,10.315c-1.264,2.721-2.949,4.924-5.052,6.604   c-2.103,1.684-4.531,2.932-7.28,3.749c-2.749,0.815-5.632,1.385-8.654,1.706c-3.018,0.323-6.078,0.472-9.172,0.445   c-3.094-0.024-6.002-0.036-8.726-0.036h-17.971v8.682h23.873c7.911,0,14.68-0.68,20.295-2.041   c5.612-1.361,10.201-3.376,13.765-6.049c3.56-2.671,6.171-5.96,7.828-9.869c1.658-3.907,2.486-8.409,2.486-13.506   C531.691,57.011,530.862,52.507,529.205,48.6z"/>
</g>
</svg>
